<svg width="33" height="28" viewBox="0 0 33 28" fill="none" xmlns="http://www.w3.org/2000/svg">
<g filter="url(#filter0_d_1_196)">
<path d="M25.2969 5.88636L23.8743 5.41176L22.9367 5.10119C22.2365 4.86389 21.3803 5.05698 20.8441 5.57112C20.2986 6.062 20.0461 6.86229 20.1997 7.58348C20.2834 8.05458 20.444 9.00958 20.5277 9.48068C20.8057 10.9382 20.8511 12.4946 20.5905 13.923C20.3753 15.1106 19.7344 17.059 18.4258 17.2568C17.9396 17.33 17.7162 17.0288 17.9384 16.5891C19.0074 14.4709 19.7623 11.9362 19.019 9.83779C18.7329 9.00144 18.0035 8.17323 17.1358 7.83474C15.8411 7.3299 14.2661 7.47647 13.1797 8.421C10.7846 10.616 11.8583 15.0048 13.702 17.4126C13.866 17.6267 13.8102 17.9338 13.5857 18.0826C13.2914 18.2769 12.9668 18.363 12.6179 18.2467C11.6722 17.8535 11.0708 16.7112 10.7335 15.7609C10.4159 14.8396 10.281 13.8299 10.3112 12.8494C10.3566 11.9886 10.4997 10.3461 10.559 9.49115C10.7125 8.11507 9.48766 6.9158 8.11274 7.12401C8.05341 7.13448 7.92546 7.15775 7.87079 7.17171C7.29849 7.31827 6.13876 7.61954 5.35011 7.8266C5.10467 7.89057 4.95694 8.1395 5.01626 8.3861L5.34894 9.76218C5.40827 10.0076 5.6537 10.1612 5.90031 10.1065C6.34698 10.0076 6.93091 9.87618 7.43924 9.76218C7.73935 9.69472 8.01619 9.94132 7.98478 10.2461C7.91848 10.9894 7.72306 12.5667 7.73818 13.296C7.74865 15.3759 8.28722 17.4859 9.58536 19.1668C10.7067 20.615 12.5492 21.4711 14.3394 20.7278C14.9361 20.4893 15.4619 20.1078 15.9156 19.653C16.0482 19.5204 16.2448 19.4785 16.4192 19.5483C17.6127 20.0264 18.9481 20.081 20.1311 19.418C21.9399 18.4002 22.7843 16.3018 23.1147 14.3685C23.4148 12.5818 23.3345 10.8126 22.9763 9.07472C22.9263 8.81184 22.846 8.40355 22.7692 8.00806C22.7273 7.79286 22.9297 7.61024 23.1403 7.67421L23.1542 7.67887L24.5885 8.11507C24.8316 8.18952 25.0898 8.05342 25.1678 7.81147L25.5958 6.47029C25.6738 6.22834 25.5412 5.96778 25.3004 5.88752L25.2969 5.88636ZM16.4216 12.9017C16.268 13.5496 16.0389 14.1917 15.7609 14.8152C15.6608 15.0397 15.3444 15.049 15.2339 14.8291C14.9792 14.322 14.7884 13.7881 14.6616 13.2762C14.4778 12.4329 14.3894 11.5698 14.7175 10.7998C14.9268 10.2763 15.505 10.1914 16.0063 10.317C16.8403 10.5706 16.5763 12.2235 16.4216 12.9017Z" fill="url(#paint0_linear_1_196)" style=""/>
<path d="M24.1887 4.46249L24.1907 4.46316L25.613 4.93765L25.6133 4.93775L25.6165 4.93881L25.6166 4.93883C26.3754 5.19177 26.7938 6.01034 26.5481 6.7756C26.5479 6.77603 26.5478 6.77646 26.5477 6.77689L26.1204 8.11553L26.1196 8.11808C25.8756 8.87573 25.0664 9.30678 24.2965 9.07149C24.2962 9.07141 24.296 9.07133 24.2957 9.07125L23.9763 8.9741C24.3385 10.784 24.4183 12.6447 24.1009 14.5342L24.1004 14.5369C23.7535 16.5672 22.8295 19.0471 20.6215 20.2895L20.62 20.2903C19.2277 21.0707 17.7032 21.0476 16.3739 20.5972C15.9008 21.0257 15.3491 21.4002 14.7166 21.6539C12.3779 22.6212 10.091 21.4532 8.79468 19.779L8.79392 19.778C7.33022 17.8828 6.75075 15.5446 6.73823 13.3085C6.7274 12.7281 6.83211 11.6858 6.9132 10.9051C6.63058 10.9684 6.35434 11.0302 6.11675 11.0828L24.1887 4.46249ZM24.1887 4.46249L23.2577 4.15409M24.1887 4.46249L23.2577 4.15409M23.2577 4.15409C23.2565 4.15368 23.2553 4.15328 23.2541 4.15288C22.2029 3.79824 20.9658 4.07775 20.1635 4.83835M23.2577 4.15409L20.1635 4.83835M20.1635 4.83835C19.3589 5.57029 19.0006 6.72085 19.2178 7.77335C19.243 7.9159 19.2752 8.10146 19.3101 8.30474C18.847 7.69732 18.219 7.18387 17.4992 6.90311L17.4991 6.90306C15.9184 6.2867 13.9362 6.43822 12.5236 7.66632L12.5137 7.67492L12.5041 7.68377C12.1104 8.04455 11.7955 8.44731 11.5489 8.87818C11.34 7.18581 9.75052 5.86459 7.96301 6.13529L7.95096 6.13711L7.93895 6.13923C7.89393 6.14718 7.72296 6.17737 7.62341 6.20279L7.6227 6.20297C7.04805 6.35013 5.88674 6.65182 5.09677 6.85922C4.31997 7.06233 3.85846 7.84873 4.044 8.61999L4.04426 8.62109L4.37693 9.99712C4.37694 9.99714 4.37694 9.99715 4.37694 9.99717C4.56396 10.7708 5.33665 11.2556 6.11643 11.0829L20.1635 4.83835ZM15.5853 11.4858C15.5949 11.7545 15.561 12.0605 15.5163 12.3262C15.4792 11.953 15.4953 11.6352 15.5771 11.3599C15.5807 11.3969 15.5837 11.4388 15.5853 11.4858Z" stroke="#FAFAF5" style="stroke:#FAFAF5;stroke:color(display-p3 0.9804 0.9804 0.9608);stroke-opacity:1;" stroke-width="2"/>
</g>
<defs>
<filter id="filter0_d_1_196" x="0.00292969" y="0.000549316" width="32.6158" height="28.0073" filterUnits="userSpaceOnUse" color-interpolation-filters="sRGB">
<feFlood flood-opacity="0" result="BackgroundImageFix"/>
<feColorMatrix in="SourceAlpha" type="matrix" values="0 0 0 0 0 0 0 0 0 0 0 0 0 0 0 0 0 0 127 0" result="hardAlpha"/>
<feOffset dx="1" dy="1"/>
<feGaussianBlur stdDeviation="2"/>
<feComposite in2="hardAlpha" operator="out"/>
<feColorMatrix type="matrix" values="0 0 0 0 0.298291 0 0 0 0 0.298291 0 0 0 0 0.298291 0 0 0 0.16 0"/>
<feBlend mode="normal" in2="BackgroundImageFix" result="effect1_dropShadow_1_196"/>
<feBlend mode="normal" in="SourceGraphic" in2="effect1_dropShadow_1_196" result="shape"/>
</filter>
<linearGradient id="paint0_linear_1_196" x1="26" y1="8" x2="7.5" y2="17" gradientUnits="userSpaceOnUse">
<stop stop-color="#C6C6C6" style="stop-color:#C6C6C6;stop-color:color(display-p3 0.7765 0.7765 0.7765);stop-opacity:1;"/>
<stop offset="1" stop-color="#D6CACA" style="stop-color:#D6CACA;stop-color:color(display-p3 0.8407 0.7911 0.7911);stop-opacity:1;"/>
</linearGradient>
</defs>
</svg>
